<?xml version="1.0" encoding="UTF-8"?>
<svg width="154px" height="85px" viewBox="0 0 154 85" version="1.1" xmlns="http://www.w3.org/2000/svg" xmlns:xlink="http://www.w3.org/1999/xlink">
    <!-- Generator: Sketch 47.1 (45422) - http://www.bohemiancoding.com/sketch -->
    <title>logo-light</title>
    <desc>Created with Sketch.</desc>
    <defs></defs>
    <g id="Symbols" stroke="none" stroke-width="1" fill="none" fill-rule="evenodd">
        <g id="logo-light" fill-rule="nonzero" fill="#FFFFFF">
            <g>
                <polygon id="Shape" points="2.329 72.448 0 72.448 0 70.551 6.672 70.551 6.672 72.448 4.342 72.448 4.342 84.607 2.329 84.607"></polygon>
                <path d="M8.447,70.552 L11.685,70.552 C14.054,70.552 15.238,71.928 15.238,74.678 C15.238,75.494 15.111,76.195 14.853,76.781 C14.597,77.367 14.146,77.837 13.501,78.192 L15.672,84.607 L13.54,84.607 L11.665,78.607 L10.461,78.607 L10.461,84.607 L8.447,84.607 L8.447,70.552 Z M10.462,76.83 L11.608,76.83 C11.962,76.83 12.246,76.781 12.457,76.682 C12.667,76.583 12.827,76.441 12.94,76.257 C13.051,76.073 13.128,75.846 13.167,75.576 C13.207,75.307 13.228,74.994 13.228,74.639 C13.228,74.283 13.207,73.971 13.167,73.701 C13.128,73.432 13.045,73.2 12.92,73.01 C12.795,72.819 12.621,72.678 12.398,72.586 C12.173,72.494 11.877,72.448 11.509,72.448 L10.463,72.448 L10.463,76.83 L10.462,76.83 Z" id="Shape"></path>
                <rect id="Rectangle-path" x="17.805" y="70.552" width="2.014" height="14.056"></rect>
                <polygon id="Shape" points="22.66 70.552 24.596 70.552 27.182 77.994 27.221 77.994 29.787 70.552 31.741 70.552 31.741 84.608 29.728 84.608 29.728 76.06 29.689 76.06 27.695 82.1 26.688 82.1 24.713 76.06 24.674 76.06 24.674 84.608 22.66 84.608"></polygon>
                <path d="M41.039,74.599 L39.025,74.599 L39.025,74.145 C39.025,73.684 38.917,73.286 38.699,72.951 C38.482,72.616 38.117,72.447 37.603,72.447 C37.328,72.447 37.099,72.5 36.922,72.605 C36.744,72.711 36.607,72.846 36.507,73.01 C36.409,73.175 36.34,73.365 36.3,73.583 C36.261,73.799 36.241,74.026 36.241,74.264 C36.241,74.54 36.251,74.774 36.27,74.964 C36.29,75.155 36.339,75.319 36.417,75.458 C36.497,75.596 36.611,75.718 36.764,75.823 C36.914,75.928 37.121,76.033 37.385,76.139 L38.924,76.751 C39.372,76.922 39.735,77.122 40.01,77.352 C40.287,77.583 40.5,77.853 40.653,78.162 C40.803,78.472 40.906,78.827 40.959,79.228 C41.011,79.629 41.038,80.087 41.038,80.6 C41.038,81.192 40.979,81.741 40.86,82.248 C40.742,82.756 40.547,83.189 40.278,83.551 C40.007,83.913 39.649,84.199 39.202,84.41 C38.754,84.62 38.208,84.726 37.563,84.726 C37.076,84.726 36.622,84.641 36.201,84.469 C35.78,84.298 35.418,84.064 35.115,83.769 C34.813,83.472 34.573,83.121 34.395,82.713 C34.216,82.305 34.128,81.863 34.128,81.39 L34.128,80.639 L36.141,80.639 L36.141,81.271 C36.141,81.64 36.25,81.972 36.467,82.268 C36.684,82.564 37.049,82.713 37.563,82.713 C37.905,82.713 38.171,82.662 38.362,82.564 C38.553,82.465 38.698,82.327 38.798,82.149 C38.896,81.972 38.958,81.752 38.986,81.489 C39.011,81.225 39.025,80.936 39.025,80.62 C39.025,80.252 39.011,79.949 38.986,79.712 C38.959,79.475 38.902,79.285 38.818,79.139 C38.732,78.994 38.613,78.876 38.463,78.784 C38.311,78.692 38.109,78.594 37.859,78.488 L36.419,77.895 C35.551,77.54 34.969,77.07 34.673,76.484 C34.376,75.899 34.229,75.164 34.229,74.283 C34.229,73.757 34.3,73.257 34.446,72.783 C34.591,72.309 34.805,71.901 35.088,71.558 C35.371,71.217 35.73,70.944 36.164,70.74 C36.599,70.536 37.104,70.434 37.685,70.434 C38.185,70.434 38.642,70.526 39.056,70.71 C39.47,70.894 39.827,71.138 40.122,71.441 C40.418,71.744 40.645,72.082 40.803,72.457 C40.961,72.832 41.04,73.217 41.04,73.612 L41.04,74.599 L41.039,74.599 Z" id="Shape"></path>
                <path d="M53.336,83.541 C52.941,83.936 52.53,84.232 52.104,84.429 C51.676,84.626 51.192,84.726 50.652,84.726 C50.258,84.726 49.881,84.647 49.527,84.488 C49.173,84.331 48.863,84.11 48.598,83.827 C48.335,83.545 48.128,83.202 47.977,82.8 C47.826,82.4 47.75,81.955 47.75,81.468 C47.75,80.692 47.934,80.015 48.303,79.435 C48.672,78.856 49.133,78.317 49.684,77.816 C49.33,77.317 49.037,76.8 48.807,76.266 C48.576,75.734 48.46,75.172 48.46,74.579 C48.46,74.211 48.52,73.859 48.639,73.522 C48.756,73.187 48.928,72.898 49.152,72.654 C49.376,72.411 49.659,72.217 50.001,72.072 C50.343,71.928 50.745,71.855 51.205,71.855 C51.64,71.855 52.02,71.923 52.351,72.062 C52.679,72.2 52.956,72.385 53.179,72.615 C53.404,72.846 53.575,73.115 53.693,73.424 C53.812,73.733 53.871,74.059 53.871,74.402 C53.871,75.059 53.667,75.688 53.26,76.287 C52.852,76.885 52.371,77.435 51.819,77.935 C52.069,78.317 52.354,78.778 52.678,79.316 C52.999,79.856 53.331,80.377 53.674,80.876 L54.76,79.396 L56.003,80.264 L54.503,82.198 L56.024,84.607 L54.01,84.607 L53.336,83.541 Z M49.527,81.371 C49.527,81.858 49.669,82.275 49.952,82.625 C50.235,82.973 50.595,83.147 51.028,83.147 C51.33,83.147 51.62,83.052 51.895,82.861 C52.172,82.671 52.383,82.483 52.528,82.298 L50.594,79.219 C50.289,79.522 50.036,79.848 49.832,80.196 C49.628,80.544 49.527,80.936 49.527,81.371 L49.527,81.371 Z M50.238,74.619 C50.238,74.922 50.309,75.248 50.455,75.597 C50.601,75.946 50.784,76.297 51.009,76.653 C51.126,76.534 51.259,76.399 51.404,76.248 C51.549,76.097 51.679,75.929 51.799,75.745 C51.917,75.56 52.016,75.36 52.094,75.143 C52.174,74.925 52.213,74.692 52.213,74.442 C52.213,74.192 52.127,73.961 51.956,73.75 C51.785,73.541 51.549,73.435 51.246,73.435 C50.943,73.435 50.7,73.557 50.516,73.8 C50.329,74.043 50.238,74.316 50.238,74.619 L50.238,74.619 Z" id="Shape"></path>
                <path d="M65.16,70.552 L66.838,70.552 L69.977,84.607 L67.964,84.607 L67.371,81.587 L64.627,81.587 L64.035,84.607 L62.021,84.607 L65.16,70.552 Z M66.009,74.599 L65.97,74.599 L64.983,79.691 L66.997,79.691 L66.009,74.599 Z" id="Shape"></path>
                <path d="M78.248,81.468 C78.248,81.903 78.166,82.317 78.002,82.712 C77.837,83.107 77.61,83.452 77.321,83.748 C77.031,84.045 76.691,84.281 76.304,84.459 C75.914,84.637 75.497,84.726 75.05,84.726 C74.667,84.726 74.28,84.672 73.884,84.567 C73.49,84.462 73.136,84.281 72.82,84.024 C72.504,83.768 72.244,83.429 72.04,83.008 C71.835,82.587 71.734,82.054 71.734,81.409 L71.734,73.671 C71.734,73.211 71.812,72.782 71.97,72.388 C72.128,71.993 72.351,71.651 72.642,71.361 C72.931,71.072 73.277,70.845 73.677,70.68 C74.079,70.516 74.523,70.434 75.011,70.434 C75.47,70.434 75.898,70.516 76.293,70.68 C76.689,70.845 77.03,71.076 77.32,71.371 C77.609,71.667 77.836,72.023 78.001,72.437 C78.165,72.852 78.247,73.303 78.247,73.789 L78.247,74.579 L76.234,74.579 L76.234,73.908 C76.234,73.513 76.122,73.171 75.897,72.881 C75.674,72.592 75.371,72.447 74.99,72.447 C74.49,72.447 74.157,72.601 73.993,72.911 C73.829,73.22 73.746,73.611 73.746,74.086 L73.746,81.271 C73.746,81.679 73.835,82.021 74.013,82.297 C74.191,82.574 74.509,82.712 74.97,82.712 C75.103,82.712 75.243,82.689 75.396,82.643 C75.546,82.597 75.685,82.522 75.81,82.416 C75.935,82.311 76.037,82.166 76.116,81.982 C76.195,81.798 76.235,81.567 76.235,81.29 L76.235,80.599 L78.248,80.599 L78.248,81.468 L78.248,81.468 Z" id="Shape"></path>
                <path d="M87.171,81.468 C87.171,81.903 87.089,82.317 86.925,82.712 C86.76,83.107 86.532,83.452 86.243,83.748 C85.953,84.045 85.614,84.281 85.226,84.459 C84.837,84.637 84.42,84.726 83.972,84.726 C83.589,84.726 83.202,84.672 82.807,84.567 C82.413,84.462 82.058,84.281 81.742,84.024 C81.426,83.768 81.166,83.429 80.963,83.008 C80.758,82.587 80.656,82.054 80.656,81.409 L80.656,73.671 C80.656,73.211 80.735,72.782 80.893,72.388 C81.05,71.993 81.274,71.651 81.564,71.361 C81.853,71.072 82.199,70.845 82.6,70.68 C83.001,70.516 83.446,70.434 83.933,70.434 C84.393,70.434 84.821,70.516 85.216,70.68 C85.611,70.845 85.952,71.076 86.242,71.371 C86.531,71.667 86.759,72.023 86.924,72.437 C87.088,72.852 87.17,73.303 87.17,73.789 L87.17,74.579 L85.156,74.579 L85.156,73.908 C85.156,73.513 85.045,73.171 84.82,72.881 C84.596,72.592 84.294,72.447 83.913,72.447 C83.413,72.447 83.079,72.601 82.915,72.911 C82.751,73.22 82.669,73.611 82.669,74.086 L82.669,81.271 C82.669,81.679 82.757,82.021 82.936,82.297 C83.114,82.574 83.432,82.712 83.893,82.712 C84.025,82.712 84.165,82.689 84.318,82.643 C84.469,82.597 84.607,82.522 84.732,82.416 C84.857,82.311 84.959,82.166 85.038,81.982 C85.117,81.798 85.157,81.567 85.157,81.29 L85.157,80.599 L87.171,80.599 L87.171,81.468 L87.171,81.468 Z" id="Shape"></path>
                <polygon id="Shape" points="89.697 70.552 95.698 70.552 95.698 72.448 91.712 72.448 91.712 76.573 95.186 76.573 95.186 78.469 91.712 78.469 91.712 82.594 95.698 82.594 95.698 84.608 89.697 84.608"></polygon>
                <path d="M104.405,74.599 L102.391,74.599 L102.391,74.145 C102.391,73.684 102.283,73.286 102.065,72.951 C101.849,72.616 101.483,72.447 100.969,72.447 C100.694,72.447 100.465,72.5 100.288,72.605 C100.11,72.711 99.973,72.846 99.873,73.01 C99.775,73.175 99.706,73.365 99.666,73.583 C99.627,73.799 99.607,74.026 99.607,74.264 C99.607,74.54 99.617,74.774 99.636,74.964 C99.656,75.155 99.705,75.319 99.783,75.458 C99.863,75.596 99.978,75.718 100.129,75.823 C100.28,75.928 100.488,76.033 100.751,76.139 L102.29,76.751 C102.738,76.922 103.101,77.122 103.376,77.352 C103.653,77.583 103.866,77.853 104.019,78.162 C104.169,78.472 104.272,78.827 104.325,79.228 C104.377,79.629 104.404,80.087 104.404,80.6 C104.404,81.192 104.344,81.741 104.226,82.248 C104.108,82.756 103.913,83.189 103.644,83.551 C103.373,83.913 103.015,84.199 102.568,84.41 C102.12,84.62 101.574,84.726 100.929,84.726 C100.442,84.726 99.988,84.641 99.567,84.469 C99.146,84.298 98.784,84.064 98.481,83.769 C98.179,83.472 97.939,83.121 97.76,82.713 C97.582,82.305 97.494,81.863 97.494,81.39 L97.494,80.639 L99.507,80.639 L99.507,81.271 C99.507,81.64 99.616,81.972 99.833,82.268 C100.05,82.564 100.415,82.713 100.929,82.713 C101.271,82.713 101.537,82.662 101.729,82.564 C101.918,82.465 102.064,82.327 102.164,82.149 C102.262,81.972 102.324,81.752 102.352,81.489 C102.377,81.225 102.391,80.936 102.391,80.62 C102.391,80.252 102.377,79.949 102.352,79.712 C102.325,79.475 102.269,79.285 102.184,79.139 C102.098,78.994 101.98,78.876 101.829,78.784 C101.677,78.692 101.476,78.594 101.226,78.488 L99.785,77.895 C98.917,77.54 98.335,77.07 98.039,76.484 C97.742,75.899 97.595,75.164 97.595,74.283 C97.595,73.757 97.666,73.257 97.812,72.783 C97.957,72.309 98.17,71.901 98.454,71.558 C98.737,71.217 99.096,70.944 99.53,70.74 C99.964,70.536 100.47,70.434 101.05,70.434 C101.55,70.434 102.008,70.526 102.422,70.71 C102.836,70.894 103.193,71.138 103.488,71.441 C103.784,71.744 104.01,72.082 104.169,72.457 C104.328,72.832 104.406,73.217 104.406,73.612 L104.406,74.599 L104.405,74.599 Z" id="Shape"></path>
                <path d="M113.306,74.599 L111.292,74.599 L111.292,74.145 C111.292,73.684 111.185,73.286 110.966,72.951 C110.749,72.616 110.383,72.447 109.87,72.447 C109.594,72.447 109.367,72.5 109.189,72.605 C109.01,72.711 108.874,72.846 108.775,73.01 C108.675,73.175 108.607,73.365 108.568,73.583 C108.528,73.799 108.507,74.026 108.507,74.264 C108.507,74.54 108.519,74.774 108.537,74.964 C108.557,75.155 108.606,75.319 108.685,75.458 C108.764,75.597 108.879,75.718 109.031,75.823 C109.183,75.928 109.388,76.033 109.652,76.139 L111.193,76.751 C111.64,76.922 112.002,77.122 112.279,77.352 C112.554,77.583 112.767,77.853 112.92,78.162 C113.072,78.472 113.172,78.827 113.227,79.228 C113.28,79.629 113.305,80.087 113.305,80.6 C113.305,81.192 113.246,81.741 113.127,82.248 C113.008,82.756 112.814,83.189 112.545,83.551 C112.275,83.913 111.916,84.199 111.469,84.41 C111.022,84.62 110.475,84.726 109.831,84.726 C109.345,84.726 108.89,84.641 108.47,84.469 C108.048,84.298 107.687,84.064 107.383,83.769 C107.08,83.472 106.841,83.121 106.663,82.713 C106.485,82.305 106.396,81.863 106.396,81.39 L106.396,80.639 L108.41,80.639 L108.41,81.271 C108.41,81.64 108.519,81.972 108.735,82.268 C108.953,82.564 109.318,82.713 109.831,82.713 C110.173,82.713 110.439,82.662 110.631,82.564 C110.821,82.465 110.966,82.327 111.065,82.149 C111.163,81.972 111.227,81.752 111.253,81.489 C111.28,81.225 111.292,80.936 111.292,80.62 C111.292,80.252 111.28,79.949 111.253,79.712 C111.228,79.475 111.169,79.285 111.085,79.139 C111,78.994 110.88,78.876 110.73,78.784 C110.579,78.692 110.377,78.594 110.127,78.488 L108.687,77.895 C107.818,77.54 107.236,77.07 106.94,76.484 C106.644,75.899 106.496,75.164 106.496,74.283 C106.496,73.757 106.568,73.257 106.713,72.783 C106.859,72.309 107.071,71.901 107.356,71.558 C107.637,71.217 107.997,70.944 108.43,70.74 C108.866,70.536 109.371,70.434 109.951,70.434 C110.451,70.434 110.908,70.526 111.324,70.71 C111.738,70.894 112.094,71.138 112.388,71.441 C112.685,71.744 112.911,72.082 113.07,72.457 C113.229,72.832 113.306,73.217 113.306,73.612 L113.306,74.599 Z" id="Shape"></path>
                <path d="M115.576,73.869 C115.576,73.304 115.674,72.803 115.873,72.369 C116.07,71.935 116.328,71.576 116.652,71.293 C116.974,71.011 117.336,70.796 117.737,70.652 C118.137,70.506 118.544,70.434 118.952,70.434 C119.36,70.434 119.765,70.507 120.167,70.652 C120.567,70.796 120.929,71.011 121.251,71.293 C121.573,71.576 121.833,71.935 122.03,72.369 C122.227,72.803 122.327,73.304 122.327,73.869 L122.327,81.291 C122.327,81.87 122.227,82.374 122.03,82.801 C121.833,83.229 121.573,83.585 121.251,83.868 C120.929,84.15 120.567,84.365 120.167,84.509 C119.765,84.654 119.36,84.727 118.952,84.727 C118.544,84.727 118.138,84.654 117.737,84.509 C117.336,84.365 116.974,84.15 116.652,83.868 C116.328,83.585 116.07,83.229 115.873,82.801 C115.674,82.374 115.576,81.87 115.576,81.291 L115.576,73.869 Z M117.59,81.29 C117.59,81.777 117.724,82.136 117.995,82.366 C118.265,82.597 118.583,82.712 118.952,82.712 C119.321,82.712 119.64,82.597 119.909,82.366 C120.179,82.136 120.315,81.777 120.315,81.29 L120.315,73.869 C120.315,73.383 120.178,73.024 119.909,72.793 C119.639,72.564 119.321,72.448 118.952,72.448 C118.583,72.448 118.264,72.564 117.995,72.793 C117.724,73.024 117.59,73.383 117.59,73.869 L117.59,81.29 Z" id="Shape"></path>
                <path d="M124.993,70.552 L128.231,70.552 C130.598,70.552 131.783,71.928 131.783,74.678 C131.783,75.494 131.656,76.195 131.398,76.781 C131.141,77.367 130.69,77.837 130.045,78.192 L132.216,84.607 L130.084,84.607 L128.209,78.607 L127.006,78.607 L127.006,84.607 L124.992,84.607 L124.992,70.552 L124.993,70.552 Z M127.007,76.83 L128.152,76.83 C128.507,76.83 128.791,76.781 129,76.682 C129.211,76.583 129.373,76.441 129.484,76.257 C129.595,76.073 129.672,75.846 129.711,75.576 C129.752,75.307 129.772,74.994 129.772,74.639 C129.772,74.283 129.752,73.971 129.711,73.701 C129.672,73.432 129.59,73.2 129.465,73.01 C129.34,72.819 129.166,72.678 128.942,72.586 C128.717,72.494 128.422,72.448 128.053,72.448 L127.008,72.448 L127.008,76.83 L127.007,76.83 Z" id="Shape"></path>
                <rect id="Rectangle-path" x="134.349" y="70.552" width="2.012" height="14.056"></rect>
                <polygon id="Shape" points="139.207 70.552 145.207 70.552 145.207 72.448 141.218 72.448 141.218 76.573 144.693 76.573 144.693 78.469 141.218 78.469 141.218 82.594 145.207 82.594 145.207 84.608 139.207 84.608"></polygon>
                <path d="M153.912,74.599 L151.898,74.599 L151.898,74.145 C151.898,73.684 151.789,73.286 151.572,72.951 C151.355,72.616 150.99,72.447 150.476,72.447 C150.201,72.447 149.974,72.5 149.794,72.605 C149.616,72.711 149.48,72.846 149.382,73.01 C149.282,73.175 149.212,73.365 149.175,73.583 C149.134,73.799 149.114,74.026 149.114,74.264 C149.114,74.54 149.124,74.774 149.143,74.964 C149.163,75.155 149.211,75.319 149.291,75.458 C149.369,75.596 149.484,75.718 149.637,75.823 C149.787,75.928 149.994,76.033 150.258,76.139 L151.799,76.751 C152.246,76.922 152.608,77.122 152.885,77.352 C153.16,77.583 153.373,77.853 153.526,78.162 C153.678,78.472 153.778,78.827 153.833,79.228 C153.886,79.629 153.911,80.087 153.911,80.6 C153.911,81.192 153.852,81.741 153.733,82.248 C153.614,82.756 153.419,83.189 153.151,83.551 C152.881,83.913 152.522,84.199 152.075,84.41 C151.628,84.62 151.081,84.726 150.436,84.726 C149.95,84.726 149.495,84.641 149.073,84.469 C148.653,84.298 148.292,84.064 147.989,83.769 C147.686,83.472 147.446,83.121 147.268,82.713 C147.09,82.305 147,81.863 147,81.39 L147,80.639 L149.016,80.639 L149.016,81.271 C149.016,81.64 149.123,81.972 149.34,82.268 C149.559,82.564 149.924,82.713 150.436,82.713 C150.778,82.713 151.043,82.662 151.237,82.564 C151.426,82.465 151.571,82.327 151.671,82.149 C151.769,81.972 151.831,81.752 151.859,81.489 C151.886,81.225 151.898,80.936 151.898,80.62 C151.898,80.252 151.886,79.949 151.859,79.712 C151.832,79.475 151.775,79.285 151.691,79.139 C151.605,78.994 151.486,78.876 151.336,78.784 C151.186,78.692 150.984,78.594 150.734,78.488 L149.293,77.895 C148.424,77.54 147.842,77.07 147.545,76.484 C147.248,75.899 147.102,75.164 147.102,74.283 C147.102,73.757 147.174,73.257 147.319,72.783 C147.464,72.309 147.678,71.901 147.962,71.558 C148.243,71.217 148.603,70.944 149.038,70.74 C149.472,70.536 149.977,70.434 150.558,70.434 C151.058,70.434 151.515,70.526 151.931,70.71 C152.345,70.894 152.701,71.138 152.995,71.441 C153.292,71.744 153.518,72.082 153.677,72.457 C153.836,72.832 153.913,73.217 153.913,73.612 L153.913,74.599 L153.912,74.599 Z" id="Shape"></path>
                <path d="M34.621,0.009 C36.054,0.009 37.275,1.169 37.275,2.599 L37.234,26.659 C37.234,28.349 38.628,28.926 39.82,27.733 L63.627,3.938 C67.547,0.009 70.221,0.009 70.221,0.009 L87.377,0.009 C87.377,0.009 84.698,0.017 80.764,3.938 L56.258,28.452 C55.69,29.021 55.69,30.027 56.258,30.596 L80.764,55.11 C84.615,58.953 87.377,59.039 87.377,59.039 L70.221,59.039 C70.221,59.039 67.645,59.12 63.627,55.11 L47.681,39.172 C47.11,38.603 46.106,38.603 45.537,39.172 L25.106,59.607 L25.106,0.009 L34.621,0.009 Z" id="Shape"></path>
                <path d="M130.216,12.132 L113.322,12.132 C112.515,12.132 111.804,12.84 111.804,13.649 L111.804,59.039 L102.305,59.042 C100.874,59.042 99.696,57.879 99.696,56.448 L99.675,13.649 C99.675,12.84 98.964,12.132 98.156,12.132 L75.922,12.132 L84.114,3.937 C88.048,0.017 93.402,0.009 93.402,0.009 L132.805,0 L132.805,9.478 C132.806,10.908 131.65,12.132 130.216,12.132" id="Shape"></path>
            </g>
        </g>
    </g>
</svg>