<?xml version="1.0" encoding="UTF-8" standalone="no"?>
<!-- Generator: Adobe Illustrator 21.1.0, SVG Export Plug-In . SVG Version: 6.00 Build 0)  -->

<svg
   xmlns:dc="http://purl.org/dc/elements/1.1/"
   xmlns:cc="http://creativecommons.org/ns#"
   xmlns:rdf="http://www.w3.org/1999/02/22-rdf-syntax-ns#"
   xmlns:svg="http://www.w3.org/2000/svg"
   xmlns="http://www.w3.org/2000/svg"
   xmlns:xlink="http://www.w3.org/1999/xlink"
   xmlns:sodipodi="http://sodipodi.sourceforge.net/DTD/sodipodi-0.dtd"
   xmlns:inkscape="http://www.inkscape.org/namespaces/inkscape"
   version="1.1"
   id="Calque_1"
   x="0px"
   y="0px"
   viewBox="0 0 486.39999 133.60001"
   xml:space="preserve"
   sodipodi:docname="404"
   width="486.39999"
   height="133.60001"
   inkscape:version="0.92.4 (5da689c313, 2019-01-14)"><metadata
   id="metadata178"><rdf:RDF><cc:Work
       rdf:about=""><dc:format>image/svg+xml</dc:format><dc:type
         rdf:resource="http://purl.org/dc/dcmitype/StillImage" /><dc:title></dc:title></cc:Work></rdf:RDF></metadata><defs
   id="defs176" /><sodipodi:namedview
   pagecolor="#ffffff"
   bordercolor="#666666"
   borderopacity="1"
   objecttolerance="10"
   gridtolerance="10"
   guidetolerance="10"
   inkscape:pageopacity="0"
   inkscape:pageshadow="2"
   inkscape:window-width="1366"
   inkscape:window-height="745"
   id="namedview174"
   showgrid="false"
   fit-margin-top="0"
   fit-margin-left="0"
   fit-margin-right="0"
   fit-margin-bottom="0"
   inkscape:zoom="0.25818182"
   inkscape:cx="243.2"
   inkscape:cy="66.800007"
   inkscape:window-x="-8"
   inkscape:window-y="-8"
   inkscape:window-maximized="1"
   inkscape:current-layer="Calque_1" />
<style
   type="text/css"
   id="style2">
	.st0{fill:#707372;}
	.st1{fill:#291F1D;}
	.st2{fill:#BE8844;}
	.st3{fill:#00121E;}
	.st4{fill:#FFFFFF;}
	.st5{fill:#464648;}
	.st6{fill:#E32119;}
	.st7{fill:#8D734A;}
	.st8{fill:#4D1C6B;}
	.st9{fill:#491D74;}
	.st10{fill:#A2864C;}
	.st11{fill:#9CA47E;}
	.st12{fill:#F8AF39;}
	.st13{fill:#A67B94;}
	.st14{fill:#BBCE00;}
	.st15{fill:#2580C3;}
	.st16{fill:#D8EEF9;}
	.st17{fill:#00B3D4;}
	.st18{fill:#E20613;}
	.st19{fill:#1D1D1B;}
	.st20{fill:#20255F;}
	.st21{fill:#E1DDD0;}
	.st22{fill:#5F255F;}
	.st23{fill:#A70240;}
	.st24{fill:#FDC82F;}
	.st25{fill:#5D544F;}
	.st26{fill:#FFF000;}
	.st27{fill:#414445;}
	.st28{fill-rule:evenodd;clip-rule:evenodd;fill:#F8AA00;}
	.st29{fill-rule:evenodd;clip-rule:evenodd;fill:#FFFFFF;}
	.st30{fill-rule:evenodd;clip-rule:evenodd;fill:#1D1D1B;}
	.st31{fill:#002E66;}
	.st32{fill:#1A1617;}
	.st33{fill:#002F5F;}
	.st34{fill:#D0A65A;}
	.st35{fill:#D55C19;}
	.st36{fill:url(#SVGID_3_);}
	.st37{fill:#1A171B;}
	.st38{fill:url(#SVGID_4_);}
	.st39{fill-rule:evenodd;clip-rule:evenodd;fill:#997300;}
	.st40{fill:#E6A500;}
	.st41{fill:#002B41;}
	.st42{fill:#0072C6;}
	.st43{fill:#43180B;}
	.st44{fill:#B7371F;}
	.st45{clip-path:url(#SVGID_6_);fill:#796A48;}
	.st46{clip-path:url(#SVGID_8_);fill:none;stroke:#796A48;stroke-width:0.283;stroke-miterlimit:3.864;}
	.st47{clip-path:url(#SVGID_10_);fill:#796A48;}
	.st48{clip-path:url(#SVGID_12_);fill:none;stroke:#796A48;stroke-width:0.283;stroke-miterlimit:3.864;}
	.st49{clip-path:url(#SVGID_14_);fill:#796A48;}
	.st50{clip-path:url(#SVGID_16_);fill:none;stroke:#796A48;stroke-width:0.283;stroke-miterlimit:3.864;}
	.st51{clip-path:url(#SVGID_18_);fill:#796A48;}
	.st52{clip-path:url(#SVGID_20_);fill:none;stroke:#796A48;stroke-width:0.283;stroke-miterlimit:3.864;}
	.st53{clip-path:url(#SVGID_22_);fill:#796A48;}
	.st54{clip-path:url(#SVGID_24_);fill:none;stroke:#796A48;stroke-width:0.283;stroke-miterlimit:3.864;}
	.st55{clip-path:url(#SVGID_26_);fill:#796A48;}
	.st56{clip-path:url(#SVGID_28_);fill:none;stroke:#796A48;stroke-width:0.283;stroke-miterlimit:3.864;}
	.st57{clip-path:url(#SVGID_30_);fill:#796A48;}
	.st58{clip-path:url(#SVGID_32_);fill:#796A48;}
	.st59{clip-path:url(#SVGID_34_);fill:#796A48;}
	.st60{clip-path:url(#SVGID_36_);fill:#796A48;}
	.st61{fill:#796A48;}
	.st62{fill:#007A4E;}
</style>
<g
   id="Brown"
   transform="translate(-306.8,-48.2)">
	<g
   id="g170">
		<g
   id="g164">
			<g
   id="g12">
				<defs
   id="defs5">
					<rect
   id="SVGID_5_"
   x="306.79999"
   y="48.200001"
   width="486.5"
   height="133.60001" />
				</defs>
				<clipPath
   id="SVGID_2_">
					<use
   xlink:href="#SVGID_5_"
   style="overflow:visible"
   id="use7"
   x="0"
   y="0"
   width="100%"
   height="100%" />
				</clipPath>
				<path
   style="fill:#796a48"
   d="m 475,180.5 c 1.2,-0.1 2,-0.3 2.3,-0.7 0.3,-0.4 0.5,-1.2 0.5,-2.5 V 164 c 0,-1.1 -0.2,-1.8 -0.5,-2.2 -0.3,-0.4 -1.1,-0.5 -2.2,-0.6 v -0.7 h 8.6 v 0.6 c -1.1,0.1 -1.9,0.3 -2.2,0.6 -0.3,0.3 -0.5,1.1 -0.5,2.2 v 6 h 9.4 v -6 c 0,-1.1 -0.1,-1.8 -0.5,-2.2 -0.3,-0.3 -1.1,-0.5 -2.2,-0.6 v -0.6 h 8.6 v 0.6 c -1.1,0.1 -1.9,0.3 -2.2,0.6 -0.3,0.3 -0.5,1.1 -0.5,2.2 v 13.8 c 0,1.1 0.1,1.8 0.5,2.2 0.3,0.3 1.1,0.5 2.2,0.6 v 0.6 h -8.6 v -0.6 c 1.2,-0.1 2,-0.3 2.3,-0.7 0.3,-0.3 0.5,-1.2 0.5,-2.5 v -6 h -9.4 v 6.4 c 0,1.1 0.2,1.8 0.5,2.2 0.3,0.3 1.1,0.5 2.2,0.6 v 0.6 H 475 Z"
   clip-path="url(#SVGID_2_)"
   id="path10"
   inkscape:connector-curvature="0" />
			</g>
			<g
   id="g22">
				<defs
   id="defs15">
					<rect
   id="SVGID_7_"
   x="306.79999"
   y="48.200001"
   width="486.5"
   height="133.60001" />
				</defs>
				<clipPath
   id="SVGID_3_">
					<use
   xlink:href="#SVGID_7_"
   style="overflow:visible"
   id="use17"
   x="0"
   y="0"
   width="100%"
   height="100%" />
				</clipPath>
				<path
   style="fill:none;stroke:#796a48;stroke-width:0.28299999;stroke-miterlimit:3.86400008"
   d="m 475,180.5 c 1.2,-0.1 2,-0.3 2.3,-0.7 0.3,-0.4 0.5,-1.2 0.5,-2.5 V 164 c 0,-1.1 -0.2,-1.8 -0.5,-2.2 -0.3,-0.4 -1.1,-0.5 -2.2,-0.6 v -0.7 h 8.6 v 0.6 c -1.1,0.1 -1.9,0.3 -2.2,0.6 -0.3,0.3 -0.5,1.1 -0.5,2.2 v 6 h 9.4 v -6 c 0,-1.1 -0.1,-1.8 -0.5,-2.2 -0.3,-0.3 -1.1,-0.5 -2.2,-0.6 v -0.6 h 8.6 v 0.6 c -1.1,0.1 -1.9,0.3 -2.2,0.6 -0.3,0.3 -0.5,1.1 -0.5,2.2 v 13.8 c 0,1.1 0.1,1.8 0.5,2.2 0.3,0.3 1.1,0.5 2.2,0.6 v 0.6 h -8.6 v -0.6 c 1.2,-0.1 2,-0.3 2.3,-0.7 0.3,-0.3 0.5,-1.2 0.5,-2.5 v -6 h -9.4 v 6.4 c 0,1.1 0.2,1.8 0.5,2.2 0.3,0.3 1.1,0.5 2.2,0.6 v 0.6 H 475 Z"
   clip-path="url(#SVGID_3_)"
   id="path20"
   inkscape:connector-curvature="0" />
			</g>
			<g
   id="g32">
				<defs
   id="defs25">
					<rect
   id="SVGID_9_"
   x="306.79999"
   y="48.200001"
   width="486.5"
   height="133.60001" />
				</defs>
				<clipPath
   id="SVGID_4_">
					<use
   xlink:href="#SVGID_9_"
   style="overflow:visible"
   id="use27"
   x="0"
   y="0"
   width="100%"
   height="100%" />
				</clipPath>
				<path
   style="fill:#796a48"
   d="m 508.4,162.8 c 1.9,-1.8 4.3,-2.8 7,-2.8 2.8,0 5.1,0.9 7,2.8 2.1,2 3.1,4.7 3.1,7.9 0,3.3 -1.1,6 -3.2,8 -1.9,1.8 -4.2,2.7 -7,2.7 -2.9,0 -5.3,-1 -7.2,-3 -2,-2 -2.9,-4.6 -2.9,-7.7 0,-3.2 1.1,-5.8 3.2,-7.9 m 2.3,15.3 c 1.3,1.6 2.9,2.3 4.7,2.3 1.8,0 3.4,-0.8 4.7,-2.3 1.3,-1.5 2,-3.9 2,-7.3 0,-3.3 -0.7,-5.8 -2,-7.4 -1.3,-1.5 -2.9,-2.2 -4.7,-2.2 -1.8,0 -3.4,0.8 -4.7,2.4 -1.2,1.6 -1.9,3.9 -1.9,7.2 0,3.3 0.6,5.7 1.9,7.3"
   clip-path="url(#SVGID_4_)"
   id="path30"
   inkscape:connector-curvature="0" />
			</g>
			<g
   id="g42">
				<defs
   id="defs35">
					<rect
   id="SVGID_11_"
   x="306.79999"
   y="48.200001"
   width="486.5"
   height="133.60001" />
				</defs>
				<clipPath
   id="SVGID_6_">
					<use
   xlink:href="#SVGID_11_"
   style="overflow:visible"
   id="use37"
   x="0"
   y="0"
   width="100%"
   height="100%" />
				</clipPath>
				<path
   style="fill:none;stroke:#796a48;stroke-width:0.28299999;stroke-miterlimit:3.86400008"
   d="m 508.4,162.8 c 1.9,-1.8 4.3,-2.8 7,-2.8 2.8,0 5.1,0.9 7,2.8 2.1,2 3.1,4.7 3.1,7.9 0,3.3 -1.1,6 -3.2,8 -1.9,1.8 -4.2,2.7 -7,2.7 -2.9,0 -5.3,-1 -7.2,-3 -2,-2 -2.9,-4.6 -2.9,-7.7 0,-3.2 1.1,-5.8 3.2,-7.9 z m 2.3,15.3 c 1.3,1.6 2.9,2.3 4.7,2.3 1.8,0 3.4,-0.8 4.7,-2.3 1.3,-1.5 2,-3.9 2,-7.3 0,-3.3 -0.7,-5.8 -2,-7.4 -1.3,-1.5 -2.9,-2.2 -4.7,-2.2 -1.8,0 -3.4,0.8 -4.7,2.4 -1.2,1.6 -1.9,3.9 -1.9,7.2 0,3.3 0.6,5.7 1.9,7.3 z"
   clip-path="url(#SVGID_6_)"
   id="path40"
   inkscape:connector-curvature="0" />
			</g>
			<g
   id="g52">
				<defs
   id="defs45">
					<rect
   id="SVGID_13_"
   x="306.79999"
   y="48.200001"
   width="486.5"
   height="133.60001" />
				</defs>
				<clipPath
   id="SVGID_8_">
					<use
   xlink:href="#SVGID_13_"
   style="overflow:visible"
   id="use47"
   x="0"
   y="0"
   width="100%"
   height="100%" />
				</clipPath>
				<path
   style="fill:#796a48"
   d="M 532.5,160.5 H 550 l 0.1,5.3 h -0.7 c -0.4,-1.6 -0.9,-2.8 -1.4,-3.2 -0.5,-0.5 -1.7,-0.8 -3.5,-0.8 h -1.7 v 15.9 c 0,1.2 0.2,2 0.6,2.2 0.4,0.3 1.2,0.5 2.4,0.6 v 0.6 h -9.1 v -0.6 c 1.3,-0.1 2.1,-0.3 2.4,-0.7 0.3,-0.3 0.5,-1.2 0.5,-2.5 V 161.8 H 538 c -1.7,0 -2.9,0.3 -3.5,0.7 -0.6,0.5 -1.1,1.6 -1.4,3.2 h -0.8 z"
   clip-path="url(#SVGID_8_)"
   id="path50"
   inkscape:connector-curvature="0" />
			</g>
			<g
   id="g62">
				<defs
   id="defs55">
					<rect
   id="SVGID_15_"
   x="306.79999"
   y="48.200001"
   width="486.5"
   height="133.60001" />
				</defs>
				<clipPath
   id="SVGID_10_">
					<use
   xlink:href="#SVGID_15_"
   style="overflow:visible"
   id="use57"
   x="0"
   y="0"
   width="100%"
   height="100%" />
				</clipPath>
				<path
   style="fill:none;stroke:#796a48;stroke-width:0.28299999;stroke-miterlimit:3.86400008"
   d="M 532.5,160.5 H 550 l 0.1,5.3 h -0.7 c -0.4,-1.6 -0.9,-2.8 -1.4,-3.2 -0.5,-0.5 -1.7,-0.8 -3.5,-0.8 h -1.7 v 15.9 c 0,1.2 0.2,2 0.6,2.2 0.4,0.3 1.2,0.5 2.4,0.6 v 0.6 h -9.1 v -0.6 c 1.3,-0.1 2.1,-0.3 2.4,-0.7 0.3,-0.3 0.5,-1.2 0.5,-2.5 V 161.8 H 538 c -1.7,0 -2.9,0.3 -3.5,0.7 -0.6,0.5 -1.1,1.6 -1.4,3.2 h -0.8 z"
   clip-path="url(#SVGID_10_)"
   id="path60"
   inkscape:connector-curvature="0" />
			</g>
			<g
   id="g72">
				<defs
   id="defs65">
					<rect
   id="SVGID_17_"
   x="306.79999"
   y="48.200001"
   width="486.5"
   height="133.60001" />
				</defs>
				<clipPath
   id="SVGID_12_">
					<use
   xlink:href="#SVGID_17_"
   style="overflow:visible"
   id="use67"
   x="0"
   y="0"
   width="100%"
   height="100%" />
				</clipPath>
				<path
   style="fill:#796a48"
   d="m 559.6,180.5 c 1.1,-0.1 1.9,-0.3 2.2,-0.6 0.3,-0.3 0.5,-1.1 0.5,-2.2 V 164 c 0,-1.1 -0.2,-1.8 -0.5,-2.2 -0.3,-0.3 -1.1,-0.5 -2.2,-0.7 v -0.6 h 16.5 l 0.1,4.5 h -0.8 c -0.3,-1.4 -0.7,-2.2 -1.2,-2.7 -0.5,-0.4 -1.7,-0.6 -3.5,-0.6 h -4.2 c -0.5,0 -0.7,0.1 -0.9,0.2 -0.1,0.1 -0.1,0.4 -0.1,0.8 v 6.9 h 4.8 c 1.3,0 2.2,-0.2 2.5,-0.6 0.4,-0.4 0.7,-1.2 0.9,-2.4 h 0.7 v 7.2 h -0.7 c -0.2,-1.2 -0.5,-2 -0.9,-2.4 -0.4,-0.4 -1.2,-0.6 -2.5,-0.6 h -4.8 v 7.7 c 0,0.6 0.2,1 0.6,1.1 0.4,0.1 1.6,0.2 3.5,0.2 2.1,0 3.6,-0.2 4.7,-0.7 1,-0.5 1.9,-1.6 2.7,-3.3 h 0.9 l -1.4,5.3 h -16.7 z"
   clip-path="url(#SVGID_12_)"
   id="path70"
   inkscape:connector-curvature="0" />
			</g>
			<g
   id="g82">
				<defs
   id="defs75">
					<rect
   id="SVGID_19_"
   x="306.79999"
   y="48.200001"
   width="486.5"
   height="133.60001" />
				</defs>
				<clipPath
   id="SVGID_14_">
					<use
   xlink:href="#SVGID_19_"
   style="overflow:visible"
   id="use77"
   x="0"
   y="0"
   width="100%"
   height="100%" />
				</clipPath>
				<path
   style="fill:none;stroke:#796a48;stroke-width:0.28299999;stroke-miterlimit:3.86400008"
   d="m 559.6,180.5 c 1.1,-0.1 1.9,-0.3 2.2,-0.6 0.3,-0.3 0.5,-1.1 0.5,-2.2 V 164 c 0,-1.1 -0.2,-1.8 -0.5,-2.2 -0.3,-0.3 -1.1,-0.5 -2.2,-0.7 v -0.6 h 16.5 l 0.1,4.5 h -0.8 c -0.3,-1.4 -0.7,-2.2 -1.2,-2.7 -0.5,-0.4 -1.7,-0.6 -3.5,-0.6 h -4.2 c -0.5,0 -0.7,0.1 -0.9,0.2 -0.1,0.1 -0.1,0.4 -0.1,0.8 v 6.9 h 4.8 c 1.3,0 2.2,-0.2 2.5,-0.6 0.4,-0.4 0.7,-1.2 0.9,-2.4 h 0.7 v 7.2 h -0.7 c -0.2,-1.2 -0.5,-2 -0.9,-2.4 -0.4,-0.4 -1.2,-0.6 -2.5,-0.6 h -4.8 v 7.7 c 0,0.6 0.2,1 0.6,1.1 0.4,0.1 1.6,0.2 3.5,0.2 2.1,0 3.6,-0.2 4.7,-0.7 1,-0.5 1.9,-1.6 2.7,-3.3 h 0.9 l -1.4,5.3 h -16.7 z"
   clip-path="url(#SVGID_14_)"
   id="path80"
   inkscape:connector-curvature="0" />
			</g>
			<g
   id="g92">
				<defs
   id="defs85">
					<rect
   id="SVGID_21_"
   x="306.79999"
   y="48.200001"
   width="486.5"
   height="133.60001" />
				</defs>
				<clipPath
   id="SVGID_16_">
					<use
   xlink:href="#SVGID_21_"
   style="overflow:visible"
   id="use87"
   x="0"
   y="0"
   width="100%"
   height="100%" />
				</clipPath>
				<path
   style="fill:#796a48"
   d="m 586.9,180.5 c 1.1,-0.1 1.9,-0.3 2.2,-0.6 0.3,-0.3 0.5,-1.1 0.5,-2.2 V 164 c 0,-1.1 -0.2,-1.8 -0.5,-2.2 -0.3,-0.3 -1.1,-0.5 -2.2,-0.7 v -0.6 h 8.7 v 0.6 c -1.1,0.1 -1.9,0.3 -2.3,0.6 -0.4,0.3 -0.6,1 -0.6,2 v 14.9 c 0,0.3 0.1,0.6 0.1,0.8 0.1,0.2 0.4,0.3 0.8,0.4 0.3,0 0.5,0.1 0.7,0.1 0.2,0 0.7,0 1.4,0 2.8,0 4.6,-0.2 5.6,-0.7 1,-0.5 1.9,-1.6 2.8,-3.5 h 0.8 l -1.5,5.4 h -16.7 z"
   clip-path="url(#SVGID_16_)"
   id="path90"
   inkscape:connector-curvature="0" />
			</g>
			<g
   id="g102">
				<defs
   id="defs95">
					<rect
   id="SVGID_23_"
   x="306.79999"
   y="48.200001"
   width="486.5"
   height="133.60001" />
				</defs>
				<clipPath
   id="SVGID_18_">
					<use
   xlink:href="#SVGID_23_"
   style="overflow:visible"
   id="use97"
   x="0"
   y="0"
   width="100%"
   height="100%" />
				</clipPath>
				<path
   style="fill:none;stroke:#796a48;stroke-width:0.28299999;stroke-miterlimit:3.86400008"
   d="m 586.9,180.5 c 1.1,-0.1 1.9,-0.3 2.2,-0.6 0.3,-0.3 0.5,-1.1 0.5,-2.2 V 164 c 0,-1.1 -0.2,-1.8 -0.5,-2.2 -0.3,-0.3 -1.1,-0.5 -2.2,-0.7 v -0.6 h 8.7 v 0.6 c -1.1,0.1 -1.9,0.3 -2.3,0.6 -0.4,0.3 -0.6,1 -0.6,2 v 14.9 c 0,0.3 0.1,0.6 0.1,0.8 0.1,0.2 0.4,0.3 0.8,0.4 0.3,0 0.5,0.1 0.7,0.1 0.2,0 0.7,0 1.4,0 2.8,0 4.6,-0.2 5.6,-0.7 1,-0.5 1.9,-1.6 2.8,-3.5 h 0.8 l -1.5,5.4 h -16.7 z"
   clip-path="url(#SVGID_18_)"
   id="path100"
   inkscape:connector-curvature="0" />
			</g>
			<g
   id="g112">
				<defs
   id="defs105">
					<rect
   id="SVGID_25_"
   x="306.79999"
   y="48.200001"
   width="486.5"
   height="133.60001" />
				</defs>
				<clipPath
   id="SVGID_20_">
					<use
   xlink:href="#SVGID_25_"
   style="overflow:visible"
   id="use107"
   x="0"
   y="0"
   width="100%"
   height="100%" />
				</clipPath>
				<path
   style="fill:#796a48"
   d="m 611.8,174.8 c 0.5,1.4 1.1,2.5 1.8,3.3 1.2,1.4 2.8,2.2 4.6,2.2 1,0 1.8,-0.3 2.6,-0.9 0.7,-0.7 1.1,-1.5 1.1,-2.6 0,-1 -0.4,-1.9 -1.1,-2.6 -0.5,-0.5 -1.4,-1.2 -3,-2.1 l -2.6,-1.6 c -0.8,-0.5 -1.4,-1 -1.9,-1.5 -0.9,-1 -1.3,-2 -1.3,-3.2 0,-1.6 0.5,-2.9 1.6,-3.9 1.1,-1.1 2.4,-1.6 4.1,-1.6 0.7,0 1.6,0.2 2.6,0.5 1,0.3 1.6,0.5 1.7,0.5 0.4,0 0.7,-0.1 0.8,-0.3 0.1,-0.2 0.3,-0.5 0.3,-0.8 h 0.7 l 0.7,6.6 h -0.7 c -0.5,-2 -1.3,-3.3 -2.4,-4.1 -1.1,-0.8 -2.2,-1.2 -3.3,-1.2 -0.9,0 -1.6,0.3 -2.2,0.8 -0.7,0.5 -0.9,1.2 -0.9,2.1 0,0.8 0.3,1.5 0.7,2 0.5,0.6 1.2,1.2 2.2,1.8 l 2.8,1.7 c 1.7,1.1 2.9,2 3.6,2.9 0.7,0.9 1.1,2 1.1,3.2 0,1.6 -0.6,3 -1.8,4.1 -1.2,1.1 -2.8,1.6 -4.7,1.6 -1,0 -2,-0.2 -3,-0.5 -1.1,-0.4 -1.6,-0.5 -1.8,-0.5 -0.4,0 -0.6,0.1 -0.7,0.3 -0.1,0.2 -0.2,0.5 -0.3,0.7 h -0.7 l -0.9,-6.6 h 0.5 v -0.3 z"
   clip-path="url(#SVGID_20_)"
   id="path110"
   inkscape:connector-curvature="0" />
			</g>
			<g
   id="g122">
				<defs
   id="defs115">
					<rect
   id="SVGID_27_"
   x="306.79999"
   y="48.200001"
   width="486.5"
   height="133.60001" />
				</defs>
				<clipPath
   id="SVGID_22_">
					<use
   xlink:href="#SVGID_27_"
   style="overflow:visible"
   id="use117"
   x="0"
   y="0"
   width="100%"
   height="100%" />
				</clipPath>
				<path
   style="fill:none;stroke:#796a48;stroke-width:0.28299999;stroke-miterlimit:3.86400008"
   d="m 611.8,174.8 c 0.5,1.4 1.1,2.5 1.8,3.3 1.2,1.4 2.8,2.2 4.6,2.2 1,0 1.8,-0.3 2.6,-0.9 0.7,-0.7 1.1,-1.5 1.1,-2.6 0,-1 -0.4,-1.9 -1.1,-2.6 -0.5,-0.5 -1.4,-1.2 -3,-2.1 l -2.6,-1.6 c -0.8,-0.5 -1.4,-1 -1.9,-1.5 -0.9,-1 -1.3,-2 -1.3,-3.2 0,-1.6 0.5,-2.9 1.6,-3.9 1.1,-1.1 2.4,-1.6 4.1,-1.6 0.7,0 1.6,0.2 2.6,0.5 1,0.3 1.6,0.5 1.7,0.5 0.4,0 0.7,-0.1 0.8,-0.3 0.1,-0.2 0.3,-0.5 0.3,-0.8 h 0.7 l 0.7,6.6 h -0.7 c -0.5,-2 -1.3,-3.3 -2.4,-4.1 -1.1,-0.8 -2.2,-1.2 -3.3,-1.2 -0.9,0 -1.6,0.3 -2.2,0.8 -0.7,0.5 -0.9,1.2 -0.9,2.1 0,0.8 0.3,1.5 0.7,2 0.5,0.6 1.2,1.2 2.2,1.8 l 2.8,1.7 c 1.7,1.1 2.9,2 3.6,2.9 0.7,0.9 1.1,2 1.1,3.2 0,1.6 -0.6,3 -1.8,4.1 -1.2,1.1 -2.8,1.6 -4.7,1.6 -1,0 -2,-0.2 -3,-0.5 -1.1,-0.4 -1.6,-0.5 -1.8,-0.5 -0.4,0 -0.6,0.1 -0.7,0.3 -0.1,0.2 -0.2,0.5 -0.3,0.7 h -0.7 l -0.9,-6.6 h 0.5 v -0.3 z"
   clip-path="url(#SVGID_22_)"
   id="path120"
   inkscape:connector-curvature="0" />
			</g>
			<g
   id="g132">
				<defs
   id="defs125">
					<rect
   id="SVGID_29_"
   x="306.79999"
   y="48.200001"
   width="486.5"
   height="133.60001" />
				</defs>
				<clipPath
   id="SVGID_24_">
					<use
   xlink:href="#SVGID_29_"
   style="overflow:visible"
   id="use127"
   x="0"
   y="0"
   width="100%"
   height="100%" />
				</clipPath>
				<path
   style="fill:#796a48"
   d="m 688.1,113.2 c 1.2,3.2 2.6,5.8 4.3,7.7 2.8,3.3 6.4,5 10.6,5 2.3,0 4.3,-0.7 5.9,-2.2 1.7,-1.4 2.5,-3.5 2.5,-6 0,-2.4 -0.9,-4.4 -2.5,-6.1 -1.1,-1.1 -3.4,-2.8 -7,-4.9 l -6.1,-3.8 c -1.8,-1.2 -3.3,-2.4 -4.4,-3.5 -2,-2.3 -3,-4.8 -3,-7.5 0,-3.6 1.2,-6.6 3.6,-9.1 2.4,-2.5 5.6,-3.6 9.6,-3.6 1.6,0 3.6,0.4 5.9,1.2 2.3,0.8 3.6,1.2 3.9,1.2 0.9,0 1.5,-0.2 1.8,-0.7 0.3,-0.4 0.6,-1.1 0.8,-1.8 h 1.4 l 1.6,15.3 h -1.7 c -1.2,-4.6 -3,-7.8 -5.6,-9.6 -2.6,-1.8 -5.1,-2.8 -7.6,-2.8 -2,0 -3.7,0.6 -5.1,1.8 -1.4,1.1 -2.2,2.8 -2.2,4.8 0,1.8 0.6,3.4 1.7,4.7 1.1,1.3 2.9,2.7 5.3,4.2 l 6.3,3.9 c 3.9,2.4 6.8,4.7 8.3,6.7 1.6,2 2.4,4.5 2.4,7.3 0,3.7 -1.4,6.9 -4.3,9.5 -2.8,2.5 -6.4,3.8 -10.9,3.8 -2.2,0 -4.5,-0.4 -7,-1.2 -2.4,-0.9 -3.8,-1.2 -4.1,-1.2 -0.9,0 -1.4,0.3 -1.7,0.8 -0.3,0.5 -0.5,1.1 -0.6,1.6 h -1.6 l -2.2,-15.3 z"
   clip-path="url(#SVGID_24_)"
   id="path130"
   inkscape:connector-curvature="0" />
			</g>
			<g
   id="g142">
				<defs
   id="defs135">
					<rect
   id="SVGID_31_"
   x="306.79999"
   y="48.200001"
   width="486.5"
   height="133.60001" />
				</defs>
				<clipPath
   id="SVGID_26_">
					<use
   xlink:href="#SVGID_31_"
   style="overflow:visible"
   id="use137"
   x="0"
   y="0"
   width="100%"
   height="100%" />
				</clipPath>
				<path
   class="st55"
   d="m 463.1,126.4 c 3,-0.2 4.8,-0.7 5.7,-1.3 0.9,-0.7 1.3,-2.4 1.3,-5.2 V 88 c 0,-2.6 -0.5,-4.3 -1.3,-5.1 -0.9,-0.8 -2.8,-1.2 -5.7,-1.4 v -1.3 h 21.3 v 1.3 c -3,0.1 -4.8,0.6 -5.7,1.4 -0.9,0.7 -1.3,2.4 -1.3,5.1 v 31.9 c 0,2.8 0.5,4.5 1.3,5.2 0.9,0.7 2.8,1.1 5.7,1.3 v 1.3 h -21.3 z"
   clip-path="url(#SVGID_26_)"
   id="path140"
   inkscape:connector-curvature="0"
   style="fill:#796a48" />
			</g>
			<g
   id="g152">
				<defs
   id="defs145">
					<rect
   id="SVGID_33_"
   x="306.79999"
   y="48.200001"
   width="486.5"
   height="133.60001" />
				</defs>
				<clipPath
   id="SVGID_28_">
					<use
   xlink:href="#SVGID_33_"
   style="overflow:visible"
   id="use147"
   x="0"
   y="0"
   width="100%"
   height="100%" />
				</clipPath>
				<path
   style="fill:#796a48"
   d="m 608.9,85.5 c 4.4,-4.2 9.8,-6.4 16.3,-6.4 6.5,0 11.9,2.1 16.3,6.4 4.8,4.6 7.2,10.8 7.2,18.4 0,7.8 -2.5,14 -7.4,18.6 -4.5,4.1 -9.8,6.2 -16.1,6.2 -6.8,0 -12.3,-2.3 -16.7,-6.8 -4.5,-4.7 -6.8,-10.6 -6.8,-17.9 0,-7.7 2.4,-13.9 7.2,-18.5 m 5.4,35.2 c 3,3.6 6.6,5.4 11,5.4 4.2,0 7.8,-1.8 10.8,-5.3 3,-3.5 4.5,-9.2 4.5,-16.9 0,-7.8 -1.5,-13.5 -4.5,-16.9 -3,-3.5 -6.6,-5.3 -10.8,-5.3 -4.3,0 -7.9,1.8 -11,5.4 -3,3.6 -4.5,9.2 -4.5,16.7 0,7.7 1.4,13.2 4.5,16.9"
   clip-path="url(#SVGID_28_)"
   id="path150"
   inkscape:connector-curvature="0" />
			</g>
			<g
   id="g162">
				<defs
   id="defs155">
					<rect
   id="SVGID_35_"
   x="306.79999"
   y="48.200001"
   width="486.5"
   height="133.60001" />
				</defs>
				<clipPath
   id="SVGID_30_">
					<use
   xlink:href="#SVGID_35_"
   style="overflow:visible"
   id="use157"
   x="0"
   y="0"
   width="100%"
   height="100%" />
				</clipPath>
				<path
   class="st57"
   d="m 405.9,101.5 c 3.8,-1.6 5.7,-4.5 5.7,-8.9 0,-4.1 -1.7,-7 -5.1,-8.5 -1.8,-0.8 -4.3,-1.2 -7.3,-1.2 -2,0 -3.3,0.1 -3.7,0.5 -0.5,0.3 -0.7,1 -0.7,2 v 17.7 c 5.2,-0.2 8.8,-0.7 11.1,-1.6 m -24.6,24.9 c 2.8,-0.3 4.5,-0.8 5.1,-1.6 0.7,-0.8 1,-2.7 1,-5.7 V 87.9 c 0,-2.5 -0.4,-4.2 -1.2,-4.9 -0.7,-0.8 -2.4,-1.3 -5,-1.5 v -1.3 h 19.9 c 4.1,0 7.5,0.5 10.4,1.6 5.3,2 7.9,5.6 7.9,11 0,3.5 -1.2,6.3 -3.5,8.2 -2.3,1.9 -5.4,3.2 -9.5,3.8 l 14.8,18.2 c 0.9,1.1 1.8,2 2.8,2.4 0.9,0.5 2.1,0.9 3.5,1 v 1.3 h -11.6 l -17.1,-22.1 -4,0.2 v 14.1 c 0,2.7 0.4,4.3 1.2,5.1 0.8,0.7 2.6,1.2 5.3,1.4 v 1.3 h -20 z"
   clip-path="url(#SVGID_30_)"
   id="path160"
   inkscape:connector-curvature="0"
   style="fill:#796a48" />
			</g>
		</g>
		<polygon
   class="st61"
   points="552.5,74 559.3,55.7 567.8,55.7 550,82.6 532.2,55.7 540.7,55.7 547.5,74 544.2,55.7 550,48.2 555.8,55.7 "
   id="polygon166"
   style="fill:#796a48" />
		<polygon
   class="st61"
   points="528.7,64 518.2,64 543.4,103.3 520.2,139.2 306.8,139.5 348.8,146.2 526,146.8 550,110.2 574,146.8 751.2,146.2 793.2,139.5 579.8,139.2 556.6,103.3 581.8,64 571.3,64 550,95.4 "
   id="polygon168"
   style="fill:#796a48" />
	</g>
</g>
</svg>